<?xml version="1.0" standalone="no"?>
<!DOCTYPE svg PUBLIC "-//W3C//DTD SVG 20010904//EN"
 "http://www.w3.org/TR/2001/REC-SVG-20010904/DTD/svg10.dtd">
<svg version="1.0" xmlns="http://www.w3.org/2000/svg"
 width="230.000000pt" height="228.000000pt" viewBox="0 0 230.000000 228.000000"
 preserveAspectRatio="xMidYMid meet">

<!-- Cercle de fond bleu -->
<circle cx="115" cy="114" r="110" fill="#19285c" stroke="none"/>

<g transform="translate(0.000000,228.000000) scale(0.100000,-0.100000)"
fill="#fff" stroke="#555555">
<path d="M972 2234 c-341 -57 -643 -279 -802 -590 -51 -100 -95 -235 -110
-342 -19 -127 -8 -324 24 -447 31 -119 114 -293 185 -386 67 -88 190 -203 279
-263 129 -85 330 -161 446 -168 l41 -3 0 260 0 260 -157 3 c-87 1 -158 5 -158
7 0 3 7 49 17 103 22 132 22 369 0 484 -32 163 -99 331 -182 457 -20 29 -34
56 -31 58 6 6 59 -22 141 -76 77 -50 317 -280 299 -287 -6 -3 -35 5 -64 16
-29 11 -55 19 -57 16 -3 -3 6 -38 21 -78 39 -109 57 -209 64 -353 l7 -130 53
-3 c28 -2 52 -2 53 0 3 14 36 974 34 977 -2 2 -32 -6 -66 -18 -34 -11 -64 -19
-66 -17 -2 2 16 44 40 92 24 49 56 121 70 159 27 70 77 249 77 273 0 15 -49
14 -158 -4z"/>
<path d="M1180 2245 c0 -3 12 -52 26 -108 30 -119 81 -254 129 -346 19 -36 35
-68 35 -72 0 -4 -29 2 -65 14 -35 11 -66 19 -68 16 -2 -2 4 -215 14 -474 10
-259 18 -478 19 -488 0 -15 8 -18 53 -15 l52 3 6 120 c9 168 42 322 86 408 8
16 12 31 10 34 -3 2 -33 -5 -66 -18 -34 -12 -64 -19 -67 -16 -9 9 143 164 224
228 76 61 210 144 218 136 3 -3 -10 -29 -29 -58 -89 -140 -154 -307 -183 -469
-21 -122 -21 -334 0 -462 9 -54 16 -102 16 -108 0 -6 -63 -11 -157 -12 l-158
-3 0 -260 0 -260 48 3 c68 4 207 46 304 92 329 154 565 470 623 832 20 123 8
350 -24 467 -108 388 -413 688 -799 786 -95 24 -247 43 -247 30z"/>
</g>
</svg>
